<svg xmlns="http://www.w3.org/2000/svg" width="39" height="39" viewBox="0 0 39 39">
    <g fill="none" fill-rule="evenodd">
        <path fill="#563D7C" d="M0 33.867a5.013 5.013 0 0 0 5.013 5.013h28.854a5.013 5.013 0 0 0 5.013-5.013V5.013A5.013 5.013 0 0 0 33.867 0H5.013A5.013 5.013 0 0 0 0 5.013v28.854z"/>
        <path fill="#FFF" d="M16.123 27.188v-6.462h5.638c1.12 0 2.022.258 2.703.775.682.516 1.022 1.379 1.022 2.588 0 .615-.104 1.12-.313 1.516a2.488 2.488 0 0 1-.84.94 3.56 3.56 0 0 1-1.22.494 6.9 6.9 0 0 1-1.451.149h-5.54zM10.946 7.67v23.54h11.408c1.055 0 2.083-.132 3.083-.395 1-.264 1.89-.67 2.67-1.22a6.008 6.008 0 0 0 1.863-2.127c.462-.868.692-1.896.692-3.083 0-1.472-.357-2.73-1.071-3.775-.714-1.044-1.797-1.775-3.248-2.192 1.056-.506 1.852-1.154 2.39-1.945.54-.792.808-1.78.808-2.968 0-1.099-.18-2.022-.544-2.77a4.523 4.523 0 0 0-1.533-1.796c-.659-.45-1.45-.775-2.374-.973-.923-.197-1.945-.296-3.066-.296H10.946zm5.177 9.528v-5.506h4.846c.462 0 .907.038 1.336.115.428.077.807.215 1.137.413.33.197.594.472.791.824.198.351.297.802.297 1.352 0 .989-.297 1.703-.89 2.143-.594.44-1.352.659-2.275.659h-5.242z"/>
    </g>
</svg>
