<svg version="1.1" baseProfile="full" width="1475" height="457" viewbox="0 0 1475 457" xmlns="http://www.w3.org/2000/svg" xmlns:xlink="http://www.w3.org/1999/xlink" xmlns:ev="http://www.w3.org/2001/xml-events" style="font:bold  14pt monospace, Helvetica, sans-serif;;stroke-linejoin:round;stroke-linecap:round">
  <title >bridge-concept</title>
  <desc >#edgeMargin: 5
#fill: transparent
#font: monospace
#fontSize: 14
#padding: 20
#spacing: 35
#stroke: #333
#title: bridge-concept

[GraphQL] -&gt; [GraphQLBridge]
[JSONSchema] -&gt; [JSONSchemaBridge]
[SimpleSchema2 (npm)] -&gt; [SimpleSchema2Bridge]
[SimpleSchema] -&gt; [SimpleSchemaBridge]

[GraphQLBridge] -&gt; [uniforms]
[SimpleSchemaBridge] -&gt; [uniforms]
[JSONSchemaBridge] -&gt; [uniforms]
[SimpleSchema2Bridge] -&gt; [uniforms]
[SimpleSchemaBridge] -&gt; [uniforms]

[uniforms] -&gt; [Ant Design]
[uniforms] -&gt; [Bootstrap 3]
[uniforms] -&gt; [Bootstrap 4]
[uniforms] -&gt; [Bootstrap 5]
[uniforms] -&gt; [Material]
[uniforms] -&gt; [MUI]
[uniforms] -&gt; [Semantic UI]
[uniforms] -&gt; [unstyled]</desc>
  <rect x="0" y="0" height="457" width="1475" style="stroke:none; fill:transparent;"></rect>
  <path d="M361 108.5 L361 126 L361 137.7 L361 137.7 " style="stroke:#333;fill:none;stroke-dasharray:none;stroke-width:3;"></path>
  <path d="M356.3 131.8 L361 137.7 L365.7 131.8 L361 143.5 Z" style="stroke:#333;fill:#333;stroke-dasharray:none;stroke-width:3;"></path>
  <path d="M864.5 108.5 L864.5 126 L864.5 137.7 L864.5 137.7 " style="stroke:#333;fill:none;stroke-dasharray:none;stroke-width:3;"></path>
  <path d="M859.8 131.8 L864.5 137.7 L869.2 131.8 L864.5 143.5 Z" style="stroke:#333;fill:#333;stroke-dasharray:none;stroke-width:3;"></path>
  <path d="M1129 108.5 L1129 126 L1129 137.7 L1129 137.7 " style="stroke:#333;fill:none;stroke-dasharray:none;stroke-width:3;"></path>
  <path d="M1124.3 131.8 L1129 137.7 L1133.7 131.8 L1129 143.5 Z" style="stroke:#333;fill:#333;stroke-dasharray:none;stroke-width:3;"></path>
  <path d="M605 108.5 L605 126 L605 137.7 L605 137.7 " style="stroke:#333;fill:none;stroke-dasharray:none;stroke-width:3;"></path>
  <path d="M600.3 131.8 L605 137.7 L609.7 131.8 L605 143.5 Z" style="stroke:#333;fill:#333;stroke-dasharray:none;stroke-width:3;"></path>
  <path d="M361 211.5 L361 229 L725.5 272 L725.5 272 " style="stroke:#333;fill:none;stroke-dasharray:none;stroke-width:3;"></path>
  <path d="M719.1 276 L725.5 272 L720.2 266.7 L731.3 272.7 Z" style="stroke:#333;fill:#333;stroke-dasharray:none;stroke-width:3;"></path>
  <path d="M605 211.5 L605 229 L725.6 261.3 L725.6 261.3 " style="stroke:#333;fill:none;stroke-dasharray:none;stroke-width:3;"></path>
  <path d="M718.8 264.3 L725.6 261.3 L721.2 255.3 L731.3 262.8 Z" style="stroke:#333;fill:#333;stroke-dasharray:none;stroke-width:3;"></path>
  <path d="M864.5 211.5 L864.5 229 L846.3 243 L846.3 243 " style="stroke:#333;fill:none;stroke-dasharray:none;stroke-width:3;"></path>
  <path d="M848.1 235.7 L846.3 243 L853.7 243.1 L841.6 246.5 Z" style="stroke:#333;fill:#333;stroke-dasharray:none;stroke-width:3;"></path>
  <path d="M1129 211.5 L1129 229 L869 269.4 L869 269.4 " style="stroke:#333;fill:none;stroke-dasharray:none;stroke-width:3;"></path>
  <path d="M874.1 263.9 L869 269.4 L875.5 273.1 L863.3 270.3 Z" style="stroke:#333;fill:#333;stroke-dasharray:none;stroke-width:3;"></path>
  <path d="M731.3 285.5 L117 332 L117 343.7 L117 343.7 " style="stroke:#333;fill:none;stroke-dasharray:none;stroke-width:3;"></path>
  <path d="M112.3 337.8 L117 343.7 L121.7 337.8 L117 349.5 Z" style="stroke:#333;fill:#333;stroke-dasharray:none;stroke-width:3;"></path>
  <path d="M731.3 287.5 L310 332 L310 343.7 L310 343.7 " style="stroke:#333;fill:none;stroke-dasharray:none;stroke-width:3;"></path>
  <path d="M305.3 337.8 L310 343.7 L314.7 337.8 L310 349.5 Z" style="stroke:#333;fill:#333;stroke-dasharray:none;stroke-width:3;"></path>
  <path d="M731.3 292.3 L508 332 L508 343.7 L508 343.7 " style="stroke:#333;fill:none;stroke-dasharray:none;stroke-width:3;"></path>
  <path d="M503.3 337.8 L508 343.7 L512.7 337.8 L508 349.5 Z" style="stroke:#333;fill:#333;stroke-dasharray:none;stroke-width:3;"></path>
  <path d="M737 314.5 L706 332 L706 343.7 L706 343.7 " style="stroke:#333;fill:none;stroke-dasharray:none;stroke-width:3;"></path>
  <path d="M701.3 337.8 L706 343.7 L710.7 337.8 L706 349.5 Z" style="stroke:#333;fill:#333;stroke-dasharray:none;stroke-width:3;"></path>
  <path d="M857.5 314.5 L888.5 332 L888.5 343.7 L888.5 343.7 " style="stroke:#333;fill:none;stroke-dasharray:none;stroke-width:3;"></path>
  <path d="M883.8 337.8 L888.5 343.7 L893.2 337.8 L888.5 349.5 Z" style="stroke:#333;fill:#333;stroke-dasharray:none;stroke-width:3;"></path>
  <path d="M863.3 295.1 L1030 332 L1030 343.7 L1030 343.7 " style="stroke:#333;fill:none;stroke-dasharray:none;stroke-width:3;"></path>
  <path d="M1025.3 337.8 L1030 343.7 L1034.7 337.8 L1030 349.5 Z" style="stroke:#333;fill:#333;stroke-dasharray:none;stroke-width:3;"></path>
  <path d="M863.3 289.2 L1187 332 L1187 343.7 L1187 343.7 " style="stroke:#333;fill:none;stroke-dasharray:none;stroke-width:3;"></path>
  <path d="M1182.3 337.8 L1187 343.7 L1191.7 337.8 L1187 349.5 Z" style="stroke:#333;fill:#333;stroke-dasharray:none;stroke-width:3;"></path>
  <path d="M863.3 286.4 L1369.5 332 L1369.5 343.7 L1369.5 343.7 " style="stroke:#333;fill:none;stroke-dasharray:none;stroke-width:3;"></path>
  <path d="M1364.8 337.8 L1369.5 343.7 L1374.2 337.8 L1369.5 349.5 Z" style="stroke:#333;fill:#333;stroke-dasharray:none;stroke-width:3;"></path>
  <rect x="305.5" y="45.5" height="58" width="112" data-name="GraphQL" style="stroke:#333;fill:transparent;stroke-dasharray:none;stroke-width:3;"></rect>
  <text x="361.5" y="81.3" style="fill: #333;font:bold  14pt monospace, Helvetica, sans-serif;text-anchor: middle;" data-name="GraphQL">GraphQL</text>
  <rect x="274.5" y="148.5" height="58" width="173" data-name="GraphQLBridge" style="stroke:#333;fill:transparent;stroke-dasharray:none;stroke-width:3;"></rect>
  <text x="361" y="184.3" style="fill: #333;font:bold  14pt monospace, Helvetica, sans-serif;text-anchor: middle;" data-name="GraphQLBridge">GraphQLBridge</text>
  <rect x="793.5" y="45.5" height="58" width="143" data-name="JSONSchema" style="stroke:#333;fill:transparent;stroke-dasharray:none;stroke-width:3;"></rect>
  <text x="865" y="81.3" style="fill: #333;font:bold  14pt monospace, Helvetica, sans-serif;text-anchor: middle;" data-name="JSONSchema">JSONSchema</text>
  <rect x="762.5" y="148.5" height="58" width="204" data-name="JSONSchemaBridge" style="stroke:#333;fill:transparent;stroke-dasharray:none;stroke-width:3;"></rect>
  <text x="864.5" y="184.3" style="fill: #333;font:bold  14pt monospace, Helvetica, sans-serif;text-anchor: middle;" data-name="JSONSchemaBridge">JSONSchemaBridge</text>
  <rect x="1011.5" y="45.5" height="58" width="235" data-name="SimpleSchema2 (npm)" style="stroke:#333;fill:transparent;stroke-dasharray:none;stroke-width:3;"></rect>
  <text x="1129" y="81.3" style="fill: #333;font:bold  14pt monospace, Helvetica, sans-serif;text-anchor: middle;" data-name="SimpleSchema2 (npm)">SimpleSchema2 (npm)</text>
  <rect x="1011.5" y="148.5" height="58" width="235" data-name="SimpleSchema2Bridge" style="stroke:#333;fill:transparent;stroke-dasharray:none;stroke-width:3;"></rect>
  <text x="1129" y="184.3" style="fill: #333;font:bold  14pt monospace, Helvetica, sans-serif;text-anchor: middle;" data-name="SimpleSchema2Bridge">SimpleSchema2Bridge</text>
  <rect x="523.5" y="45.5" height="58" width="163" data-name="SimpleSchema" style="stroke:#333;fill:transparent;stroke-dasharray:none;stroke-width:3;"></rect>
  <text x="605" y="81.3" style="fill: #333;font:bold  14pt monospace, Helvetica, sans-serif;text-anchor: middle;" data-name="SimpleSchema">SimpleSchema</text>
  <rect x="492.5" y="148.5" height="58" width="225" data-name="SimpleSchemaBridge" style="stroke:#333;fill:transparent;stroke-dasharray:none;stroke-width:3;"></rect>
  <text x="605" y="184.3" style="fill: #333;font:bold  14pt monospace, Helvetica, sans-serif;text-anchor: middle;" data-name="SimpleSchemaBridge">SimpleSchemaBridge</text>
  <rect x="736.5" y="251.5" height="58" width="122" data-name="uniforms" style="stroke:#333;fill:transparent;stroke-dasharray:none;stroke-width:3;"></rect>
  <text x="797.5" y="287.3" style="fill: #333;font:bold  14pt monospace, Helvetica, sans-serif;text-anchor: middle;" data-name="uniforms">uniforms</text>
  <rect x="45.5" y="354.5" height="58" width="143" data-name="Ant Design" style="stroke:#333;fill:transparent;stroke-dasharray:none;stroke-width:3;"></rect>
  <text x="117" y="390.3" style="fill: #333;font:bold  14pt monospace, Helvetica, sans-serif;text-anchor: middle;" data-name="Ant Design">Ant Design</text>
  <rect x="233.5" y="354.5" height="58" width="153" data-name="Bootstrap 3" style="stroke:#333;fill:transparent;stroke-dasharray:none;stroke-width:3;"></rect>
  <text x="310" y="390.3" style="fill: #333;font:bold  14pt monospace, Helvetica, sans-serif;text-anchor: middle;" data-name="Bootstrap 3">Bootstrap 3</text>
  <rect x="431.5" y="354.5" height="58" width="153" data-name="Bootstrap 4" style="stroke:#333;fill:transparent;stroke-dasharray:none;stroke-width:3;"></rect>
  <text x="508" y="390.3" style="fill: #333;font:bold  14pt monospace, Helvetica, sans-serif;text-anchor: middle;" data-name="Bootstrap 4">Bootstrap 4</text>
  <rect x="629.5" y="354.5" height="58" width="153" data-name="Bootstrap 5" style="stroke:#333;fill:transparent;stroke-dasharray:none;stroke-width:3;"></rect>
  <text x="706" y="390.3" style="fill: #333;font:bold  14pt monospace, Helvetica, sans-serif;text-anchor: middle;" data-name="Bootstrap 5">Bootstrap 5</text>
  <rect x="827.5" y="354.5" height="58" width="122" data-name="Material" style="stroke:#333;fill:transparent;stroke-dasharray:none;stroke-width:3;"></rect>
  <text x="888.5" y="390.3" style="fill: #333;font:bold  14pt monospace, Helvetica, sans-serif;text-anchor: middle;" data-name="Material">Material</text>
  <rect x="994.5" y="354.5" height="58" width="71" data-name="MUI" style="stroke:#333;fill:transparent;stroke-dasharray:none;stroke-width:3;"></rect>
  <text x="1030" y="390.3" style="fill: #333;font:bold  14pt monospace, Helvetica, sans-serif;text-anchor: middle;" data-name="MUI">MUI</text>
  <rect x="1110.5" y="354.5" height="58" width="153" data-name="Semantic UI" style="stroke:#333;fill:transparent;stroke-dasharray:none;stroke-width:3;"></rect>
  <text x="1187" y="390.3" style="fill: #333;font:bold  14pt monospace, Helvetica, sans-serif;text-anchor: middle;" data-name="Semantic UI">Semantic UI</text>
  <rect x="1308.5" y="354.5" height="58" width="122" data-name="unstyled" style="stroke:#333;fill:transparent;stroke-dasharray:none;stroke-width:3;"></rect>
  <text x="1369.5" y="390.3" style="fill: #333;font:bold  14pt monospace, Helvetica, sans-serif;text-anchor: middle;" data-name="unstyled">unstyled</text>
</svg>