<svg version="1.1" baseProfile="full" width="400" height="446" viewbox="0 0 400 446" xmlns="http://www.w3.org/2000/svg" xmlns:xlink="http://www.w3.org/1999/xlink" xmlns:ev="http://www.w3.org/2001/xml-events" style="font-weight:italic bold; font-size:14pt; font-family:'monospace', Helvetica, sans-serif;;stroke-width:3;stroke-linejoin:round;stroke-linecap:round">
  <title >nomnoml</title>
  <desc >#edges: hard
#fontSize: 14
#padding: 18
#edgeMargin: 8
#font: monospace
#fill: transparent

[BaseForm]-&gt;[QuickForm]
[BaseForm]-&gt;[ValidatedForm]
[QuickForm]-&gt; [ValidatedQuickForm]
[ValidatedForm]-&gt; [ValidatedQuickForm]
[ValidatedQuickForm]-&gt;[AutoForm]

</desc>
  <rect x="0" y="0" height="446" width="400" style="stroke:none; fill:transparent;"></rect>
  <path d="M128.3 93.5 L92.5 113.5 L92.5 133.5" style="stroke:#33322E;fill:none;stroke-dasharray:none;"></path>
  <path d="M87.2 120.2 L92.5 126.8 L97.8 120.2 L92.5 133.5 Z" style="stroke:#33322E;fill:#33322E;stroke-dasharray:none;"></path>
  <path d="M253.7 93.5 L289.5 113.5 L289.5 133.5" style="stroke:#33322E;fill:none;stroke-dasharray:none;"></path>
  <path d="M284.2 120.2 L289.5 126.8 L294.8 120.2 L289.5 133.5 Z" style="stroke:#33322E;fill:#33322E;stroke-dasharray:none;"></path>
  <path d="M92.5 203.5 L92.5 223.5 L128.3 243.5" style="stroke:#33322E;fill:none;stroke-dasharray:none;"></path>
  <path d="M114.1 241.7 L122.5 240.2 L119.3 232.3 L128.3 243.5 Z" style="stroke:#33322E;fill:#33322E;stroke-dasharray:none;"></path>
  <path d="M289.5 203.5 L289.5 223.5 L253.7 243.5" style="stroke:#33322E;fill:none;stroke-dasharray:none;"></path>
  <path d="M262.7 232.3 L259.5 240.2 L267.9 241.7 L253.7 243.5 Z" style="stroke:#33322E;fill:#33322E;stroke-dasharray:none;"></path>
  <path d="M191 313.5 L191 333.5 L191 353.5" style="stroke:#33322E;fill:none;stroke-dasharray:none;"></path>
  <path d="M185.7 340.2 L191 346.8 L196.3 340.2 L191 353.5 Z" style="stroke:#33322E;fill:#33322E;stroke-dasharray:none;"></path>
  <rect x="135.5" y="31.5" height="54" width="112" style="stroke:#33322E;fill:transparent;stroke-dasharray:none;"></rect>
  <text x="191.5" y="65.3" style="fill: #33322E;text-anchor: middle;">BaseForm</text>
  <rect x="31.5" y="141.5" height="54" width="122" style="stroke:#33322E;fill:transparent;stroke-dasharray:none;"></rect>
  <text x="92.5" y="175.3" style="fill: #33322E;text-anchor: middle;">QuickForm</text>
  <rect x="209.5" y="141.5" height="54" width="160" style="stroke:#33322E;fill:transparent;stroke-dasharray:none;"></rect>
  <text x="289.5" y="175.3" style="fill: #33322E;text-anchor: middle;">ValidatedForm</text>
  <rect x="87.5" y="251.5" height="54" width="207" style="stroke:#33322E;fill:transparent;stroke-dasharray:none;"></rect>
  <text x="191" y="285.3" style="fill: #33322E;text-anchor: middle;">ValidatedQuickForm</text>
  <rect x="135.5" y="361.5" height="54" width="112" style="stroke:#33322E;fill:transparent;stroke-dasharray:none;"></rect>
  <text x="191.5" y="395.3" style="fill: #33322E;text-anchor: middle;">AutoForm</text>
</svg>