
<svg xmlns="http://www.w3.org/2000/svg" width="3162.035" height="779.538">
  <g xmlns="http://www.w3.org/2000/svg" fill="#00141E">
    <path d="M629.394 220.179c-.019-.156-.05-.311-.075-.473-.112-.703-.261-1.4-.454-2.09-.031-.125-.056-.25-.094-.374-.23-.766-.51-1.525-.846-2.271a6.083 6.083 0 0 0-.218-.455c-.168-.373-.342-.74-.535-1.107-.118-.2-.255-.386-.373-.585-.125-.2-.237-.386-.361-.579a18.551 18.551 0 0 0-1.3-1.773c-.038-.05-.069-.1-.113-.137a20.936 20.936 0 0 0-1.705-1.774c-.118-.1-.23-.199-.348-.298a20.749 20.749 0 0 0-1.686-1.307c-.119-.075-.218-.156-.33-.23a18.02 18.02 0 0 0-2.134-1.22l-.131-.075-255.1-122.528a19.202 19.202 0 0 0-16.596 0L91.888 205.425c-.05.025-.093.056-.143.081-.722.36-1.425.76-2.103 1.201-.13.08-.255.174-.38.261-.56.386-1.101.81-1.624 1.263-.13.113-.261.225-.392.343a19.351 19.351 0 0 0-1.686 1.736c-.062.068-.112.15-.168.224a18.44 18.44 0 0 0-1.624 2.327c-.112.187-.243.361-.349.548-.193.342-.348.697-.516 1.045-.087.18-.18.355-.262.529-.323.74-.597 1.481-.821 2.234l-.112.435a17.76 17.76 0 0 0-.436 2.023c-.03.174-.062.342-.08.516a18.318 18.318 0 0 0-.175 2.47v315.217a19.172 19.172 0 0 0 9.875 16.764l255.101 141.476a19.225 19.225 0 0 0 9.303 2.402 19.22 19.22 0 0 0 9.296-2.402L619.7 554.654a19.185 19.185 0 0 0 9.875-16.763V222.687c0-.84-.062-1.674-.18-2.508zM355.296 657.42 119.36 526.59V255.275l125.148 69.4a19.135 19.135 0 0 0 9.284 2.409c6.745 0 13.285-3.566 16.789-9.882 5.133-9.259 1.792-20.933-7.467-26.066L141.936 223.93l213.36-102.467L568.66 223.937 447.49 291.13c-9.265 5.133-12.62 16.807-7.473 26.066 3.497 6.322 10.037 9.881 16.782 9.881 3.149 0 6.341-.777 9.278-2.408l125.148-69.394v271.317L355.296 657.42z"/>
    <path d="M374.604 393.583a3.842 3.842 0 0 0-4.63-2.57c-9.607 2.502-19.918 2.49-29.563-.056a3.846 3.846 0 0 0-4.642 2.564l-53.837 172.11a3.83 3.83 0 0 0 1.113 4.001l69.594 61.821a3.819 3.819 0 0 0 2.55.965c.91 0 1.812-.324 2.54-.958l69.83-61.822a3.822 3.822 0 0 0 1.107-4.013l-54.062-172.042zM304.874 320.412l31.561 54.111a3.86 3.86 0 0 0 2.334 1.78c1.057.274 2.115.585 3.18.884 4.175 1.2 8.5 2.439 13.347 2.439 4.673 0 8.83-1.201 12.85-2.365 1.138-.323 2.277-.66 3.422-.952a3.837 3.837 0 0 0 2.395-1.873l29.688-54.304c1.027-2.165 1.96-7.125-1.095-11.972-5.55-8.787-21.443-13.242-47.26-13.242-26.073 0-42.438 4.505-48.66 13.379-3.99 5.706-2.26 10.92-2.054 11.505.087.206.18.41.292.61z"/>
  </g>
  <path d="M935.033 272.205v28.335h94.248v71.456h-94.248v240.24h-81.312v-240.24H793.97V300.54h59.752v-28.335c0-72.072 36.96-118.272 109.648-118.272 27.104 0 49.28 3.696 70.224 13.552l-19.712 65.296c-12.936-5.544-23.408-8.008-38.808-8.008-25.872 0-40.04 17.864-40.04 47.432zM1184.05 620.86c-96.095 0-166.935-71.456-166.935-164.472 0-93.632 70.84-164.472 166.935-164.472s166.32 70.84 166.32 164.472c0 93.016-70.224 164.472-166.32 164.472zm0-73.92c51.744 0 87.472-38.808 87.472-90.552s-35.728-90.552-87.472-90.552c-52.36 0-87.471 38.808-87.471 90.552s35.111 90.552 87.471 90.552zm269.962-200.2c18.48-36.344 54.207-57.288 102.871-50.512v76.384c-66.527-10.472-102.871 20.328-102.871 104.104v135.52H1372.7V300.54h81.312v46.2zm489.256-54.824c74.536 0 123.2 48.048 123.2 134.904v185.416h-81.312V444.068c0-46.816-17.248-76.384-59.752-76.384-43.736 0-65.911 32.648-65.911 85.624v158.928h-81.928V444.068c0-46.2-16.632-76.384-58.52-76.384-43.736 0-67.144 33.264-67.144 88.088v156.464h-81.312V300.54h81.312v36.96c20.328-26.488 51.128-45.584 92.4-45.584 43.736 0 74.536 17.248 93.632 46.816 20.328-25.872 55.44-46.816 105.335-46.816zm202.202-35.111c-27.104 0-48.664-20.944-48.664-48.048 0-25.872 21.56-46.816 48.664-46.816s48.664 20.944 48.664 46.816c0 27.104-21.56 48.048-48.664 48.048zm-41.888 355.43V300.54h81.928v311.696h-81.928zm305.69-320.319c81.31 0 122.583 54.824 122.583 137.984v182.336h-81.312V445.3c0-47.432-21.56-77.616-66.528-77.616-45.584 0-75.152 35.728-75.152 90.552v154h-81.311V300.54h81.311v39.424c21.56-27.72 55.44-48.048 100.408-48.048zm310.616 328.944c-99.791 0-169.4-65.912-169.4-164.472 0-93.016 65.297-164.472 163.24-164.472 102.256 0 160.776 70.84 160.776 160.16 0 9.856 0 19.096-1.848 28.952h-242.087c5.544 40.04 33.88 70.84 90.551 70.84 39.424 0 63.448-17.864 75.768-41.272l73.304 21.56c-17.864 40.656-68.376 88.704-150.304 88.704zm-89.32-190.96h164.472c-3.696-38.192-33.264-68.992-81.928-68.992-47.432 0-78.231 33.264-82.543 68.992zm347.578-83.16c18.48-36.344 54.207-57.288 102.871-50.512v76.384c-66.527-10.472-102.871 20.328-102.871 104.104v135.52h-81.312V300.54h81.312v46.2z"/>
</svg>
