<svg xmlns="http://www.w3.org/2000/svg" xmlns:xlink="http://www.w3.org/1999/xlink" width="1200" zoomAndPan="magnify" viewBox="0 0 900 899.99999" height="1200" preserveAspectRatio="xMidYMid meet" version="1.0"><defs><clipPath id="id1"><path d="M 7.972656 16 L 892.222656 16 L 892.222656 879 L 7.972656 879 Z M 7.972656 16 " clip-rule="nonzero"/></clipPath></defs><g clip-path="url(#id1)"><path fill="#412a94" d="M 450.097656 16.261719 C 205.824219 16.261719 7.972656 214.113281 7.972656 458.386719 C 7.972656 654.027344 134.53125 819.273438 310.277344 877.855469 C 332.382812 881.722656 340.671875 868.457031 340.671875 856.851562 C 340.671875 846.351562 340.121094 811.535156 340.121094 774.507812 C 229.035156 794.957031 200.296875 747.425781 191.453125 722.558594 C 186.480469 709.847656 164.925781 670.609375 146.136719 660.105469 C 130.664062 651.816406 108.554688 631.371094 145.585938 630.816406 C 180.402344 630.265625 205.269531 662.871094 213.5625 676.132812 C 253.351562 743.003906 316.90625 724.214844 342.328125 712.609375 C 346.199219 683.871094 357.804688 664.527344 370.515625 653.476562 C 272.144531 642.421875 169.347656 604.289062 169.347656 435.175781 C 169.347656 387.09375 186.480469 347.304688 214.667969 316.355469 C 210.246094 305.300781 194.769531 259.984375 219.085938 199.191406 C 219.085938 199.191406 256.117188 187.585938 340.671875 244.511719 C 376.042969 234.5625 413.621094 229.589844 451.203125 229.589844 C 488.785156 229.589844 526.363281 234.5625 561.734375 244.511719 C 646.289062 187.035156 683.320312 199.191406 683.320312 199.191406 C 707.636719 259.984375 692.160156 305.300781 687.738281 316.355469 C 715.925781 347.304688 733.058594 386.542969 733.058594 435.175781 C 733.058594 604.839844 629.710938 642.421875 531.339844 653.476562 C 547.367188 667.292969 561.183594 693.820312 561.183594 735.269531 C 561.183594 794.402344 560.628906 841.929688 560.628906 856.851562 C 560.628906 868.457031 568.917969 882.273438 591.023438 877.855469 C 596.46875 876.015625 601.875 874.074219 607.242188 872.023438 C 612.609375 869.976562 617.933594 867.824219 623.21875 865.570312 C 628.503906 863.3125 633.738281 860.957031 638.933594 858.496094 C 644.125 856.039062 649.265625 853.480469 654.359375 850.820312 C 659.453125 848.160156 664.488281 845.402344 669.476562 842.546875 C 674.460938 839.691406 679.386719 836.742188 684.257812 833.695312 C 689.128906 830.648438 693.9375 827.507812 698.6875 824.273438 C 703.433594 821.039062 708.117188 817.714844 712.734375 814.300781 C 717.355469 810.882812 721.90625 807.378906 726.386719 803.785156 C 730.871094 800.195312 735.28125 796.515625 739.617188 792.75 C 743.957031 788.984375 748.222656 785.136719 752.410156 781.207031 C 756.601562 777.277344 760.710938 773.265625 764.746094 769.175781 C 768.777344 765.085938 772.730469 760.917969 776.601562 756.675781 C 780.472656 752.433594 784.257812 748.113281 787.960938 743.722656 C 791.664062 739.332031 795.28125 734.871094 798.808594 730.339844 C 802.339844 725.808594 805.777344 721.207031 809.128906 716.542969 C 812.480469 711.875 815.738281 707.148438 818.902344 702.355469 C 822.070312 697.5625 825.140625 692.710938 828.117188 687.800781 C 831.09375 682.886719 833.976562 677.921875 836.757812 672.894531 C 839.542969 667.871094 842.226562 662.796875 844.8125 657.667969 C 847.398438 652.539062 849.886719 647.363281 852.269531 642.140625 C 854.65625 636.914062 856.9375 631.644531 859.117188 626.332031 C 861.296875 621.019531 863.371094 615.664062 865.339844 610.269531 C 867.3125 604.875 869.179688 599.445312 870.9375 593.976562 C 872.699219 588.511719 874.351562 583.011719 875.894531 577.480469 C 877.441406 571.949219 878.878906 566.390625 880.207031 560.804688 C 881.535156 555.21875 882.757812 549.605469 883.867188 543.972656 C 884.976562 538.339844 885.980469 532.683594 886.871094 527.011719 C 887.761719 521.339844 888.539062 515.648438 889.207031 509.945312 C 889.878906 504.242188 890.4375 498.527344 890.882812 492.804688 C 891.328125 487.078125 891.664062 481.347656 891.886719 475.609375 C 892.109375 469.871094 892.222656 464.128906 892.222656 458.386719 C 892.222656 214.113281 694.371094 16.261719 450.097656 16.261719 Z M 450.097656 16.261719 " fill-opacity="1" fill-rule="nonzero"/></g></svg>