<svg xmlns="http://www.w3.org/2000/svg" width="59" height="59" viewBox="0 0 59 59">
    <g fill="none" fill-rule="evenodd">
        <path fill="#3FBBFE" d="M39.865 38.73H19.298a1.87 1.87 0 1 0 0 3.74h20.567a1.87 1.87 0 1 0 0-3.74M39.865 48.079H19.298a1.87 1.87 0 1 0 0 3.74h20.567a1.87 1.87 0 1 0 0-3.74M4.34 8.814h5.609V4.14h-5.61zM26.777 8.814h5.609V4.14h-5.61zM49.214 8.814h5.609V4.14h-5.61zM43.604 22.837h1.87v-1.87h-1.87zM39.865 22.837h1.87v-1.87h-1.87zM36.125 22.837h1.87v-1.87h-1.87z"/>
        <path fill="#412A94" d="M43.604 36.86a.936.936 0 0 1-.935.935H16.493a.936.936 0 0 1-.935-.935v-1.87c0-.515.419-.934.935-.934h26.176c.516 0 .935.42.935.934v1.87zm-.935-4.674H16.493a2.808 2.808 0 0 0-2.805 2.804v1.87a2.808 2.808 0 0 0 2.805 2.805h26.176a2.808 2.808 0 0 0 2.805-2.805v-1.87a2.808 2.808 0 0 0-2.805-2.804zM43.799 55.791a.936.936 0 0 1-.935.935H16.688a.936.936 0 0 1-.935-.935v-1.87c0-.515.419-.934.935-.934h26.176c.516 0 .935.42.935.935v1.87zm-.935-4.674H16.688a2.808 2.808 0 0 0-2.805 2.805v1.87a2.808 2.808 0 0 0 2.805 2.804h26.176a2.808 2.808 0 0 0 2.805-2.805v-1.87a2.808 2.808 0 0 0-2.805-2.804zM4.34 6.01h5.609V4.14h-5.61zM4.34 9.749h5.609v-1.87h-5.61zM26.777 6.01h5.609V4.14h-5.61zM26.777 9.749h5.609v-1.87h-5.61z"/>
        <path fill="#412A94" d="M47.344 11.619h9.349v-9.35h-9.35v9.35zm-22.437 0h9.349v-9.35h-9.35v9.35zm6.93 9.348l1.597-1.596a.944.944 0 0 1 .66-.273H46.41c.516 0 .935.42.935.934v4.675H11.819v-2.805c0-.515.418-.935.934-.935h19.085zM46.41 43.404h-1.107a2.8 2.8 0 0 0-2.633-1.87H16.493a2.8 2.8 0 0 0-2.633 1.87h-1.107a.936.936 0 0 1-.934-.935V26.577h35.525v15.892a.936.936 0 0 1-.935.935zm-2.805 2.805a.936.936 0 0 1-.935.935H16.493a.936.936 0 0 1-.935-.935v-1.87c0-.515.419-.935.935-.935h26.176c.516 0 .935.42.935.935v1.87zM2.47 11.619h9.349v-9.35h-9.35v9.35zm56.092 1.87V.4H45.474v5.61h-9.349V.4H23.037v5.61h-9.349V.4H.6v13.088h13.088V7.88h9.349v5.61h5.61v5.609H12.752a2.808 2.808 0 0 0-2.804 2.804V42.47a2.808 2.808 0 0 0 2.804 2.805h.935v.935a2.808 2.808 0 0 0 2.805 2.805h26.176a2.808 2.808 0 0 0 2.805-2.805v-.935h.935a2.808 2.808 0 0 0 2.805-2.805V20.032a2.808 2.808 0 0 0-2.805-2.804H34.095c-.75 0-1.454.291-1.983.822l-1.048 1.048h-.548v-5.61h5.61V7.88h9.348v5.61h13.088z"/>
        <path fill="#412A94" d="M49.214 6.01h5.609V4.14h-5.61zM49.214 9.749h5.609v-1.87h-5.61z"/>
        <path fill="#3FBBFE" d="M13.688 30.316h1.87v-1.87h-1.87zM17.428 30.316h1.87v-1.87h-1.87zM21.167 30.316h1.87v-1.87h-1.87z"/>
    </g>
</svg>
