<svg xmlns="http://www.w3.org/2000/svg" xmlns:xlink="http://www.w3.org/1999/xlink" width="1200" zoomAndPan="magnify" viewBox="0 0 900 899.99999" height="1200" preserveAspectRatio="xMidYMid meet" version="1.0"><defs><clipPath id="id1"><path d="M 7.972656 7.972656 L 892.222656 7.972656 L 892.222656 892.222656 L 7.972656 892.222656 Z M 7.972656 7.972656 " clip-rule="nonzero"/></clipPath></defs><g clip-path="url(#id1)"><path fill="#412a94" d="M 450.097656 7.972656 C 205.875 7.972656 7.972656 205.875 7.972656 450.097656 C 7.972656 694.320312 205.875 892.222656 450.097656 892.222656 C 694.320312 892.222656 892.222656 694.320312 892.222656 450.097656 C 891.839844 205.875 693.9375 7.972656 450.097656 7.972656 Z M 320.332031 685.515625 L 216.59375 685.515625 L 216.59375 350.953125 L 320.332031 350.953125 Z M 268.65625 306.550781 C 235.351562 306.550781 208.171875 279.371094 208.171875 246.070312 C 208.171875 212.765625 235.351562 185.589844 268.65625 185.589844 C 301.957031 185.589844 329.136719 212.765625 329.136719 246.070312 C 329.136719 279.371094 301.957031 306.550781 268.65625 306.550781 Z M 710.015625 685.515625 L 606.277344 685.515625 L 606.277344 518.234375 C 606.277344 494.5 606.277344 435.550781 553.453125 435.550781 C 493.351562 435.550781 489.527344 496.414062 489.527344 496.414062 L 489.527344 685.515625 L 386.171875 685.515625 L 386.171875 350.953125 L 489.910156 350.953125 L 489.910156 396.890625 C 514.40625 347.125 564.933594 343.300781 597.855469 343.300781 C 635.371094 343.300781 669.054688 357.84375 688.195312 390 C 704.65625 417.175781 710.015625 456.605469 710.015625 518.234375 Z M 710.015625 685.515625 " fill-opacity="1" fill-rule="nonzero"/></g></svg>