<svg version="1.1" xmlns="http://www.w3.org/2000/svg" x="0" y="0" viewBox="0 0 136.1 28.4" xml:space="preserve"><style>.st0{fill:#fff}</style><path class="st0" d="M41.3 17.4l.4 1.9h.1l.4-1.9 3.4-13h5.8l-7 20.7H39L32 4.3h5.8l3.5 13.1zM65.8 25.1c-.2-.5-.4-1-.5-1.5s-.3-1.1-.4-1.6c-.6 1-1.3 1.9-2.3 2.5s-2.1 1-3.4 1c-2.2 0-3.8-.6-5-1.7-1.2-1.1-1.8-2.6-1.8-4.6 0-2 .8-3.6 2.3-4.7s3.8-1.7 6.8-1.7h3.1v-1.6c0-1-.3-1.8-.8-2.3-.5-.6-1.3-.8-2.3-.8-.9 0-1.6.2-2.1.7-.5.4-.7 1-.7 1.8h-5.4v-.1c-.1-1.8.7-3.3 2.3-4.5s3.9-2 6.5-2c2.5 0 4.5.6 6.1 1.9s2.3 3 2.3 5.4v8.6c0 1 .1 1.9.2 2.7s.4 1.7.7 2.5h-5.6zm-5.1-3.8c1 0 1.8-.2 2.6-.7s1.3-1 1.6-1.7V16h-3.1c-1.2 0-2.1.3-2.7.9-.6.6-.9 1.3-.9 2.2 0 .7.2 1.3.7 1.7s1 .5 1.8.5zM80.9 20.8h10.3v4.3H73.9v-3.3l9.9-13.1h-9.6V4.3h16.6v3.2l-9.9 13.3zM103 21.2c1 0 1.7-.3 2.3-.9s.9-1.4.9-2.3h5.1v.1c.1 2.1-.7 3.9-2.3 5.3-1.6 1.4-3.6 2.1-6 2.1-3.1 0-5.4-1-7.1-2.9s-2.5-4.5-2.5-7.5v-.6c0-3 .8-5.6 2.5-7.5s4-3 7.1-3c2.5 0 4.6.7 6.1 2.2s2.3 3.4 2.2 5.8v.1h-5.1c0-1.1-.3-2-.8-2.7S104 8.3 103 8.3c-1.4 0-2.5.6-3.1 1.7-.6 1.2-.9 2.6-.9 4.4v.6c0 1.8.3 3.3.9 4.5.6 1.1 1.7 1.7 3.1 1.7zM113.8 14.5c0-3.1.9-5.6 2.6-7.6s4.1-3 7.2-3c3.1 0 5.5 1 7.2 3s2.6 4.5 2.6 7.6v.4c0 3.1-.9 5.7-2.6 7.6-1.7 2-4.1 2.9-7.2 2.9-3.1 0-5.5-1-7.2-2.9s-2.6-4.5-2.6-7.6v-.4zm5.5.4c0 1.9.3 3.4 1 4.6.7 1.1 1.7 1.7 3.2 1.7 1.4 0 2.5-.6 3.2-1.7s1-2.7 1-4.5v-.4c0-1.8-.3-3.3-1-4.5s-1.7-1.7-3.2-1.7c-1.4 0-2.5.6-3.2 1.8s-1 2.7-1 4.5v.2z"/><path d="M14.1 0L0 20.8l26.2 7.6L14.1 0z" fill-rule="evenodd" clip-rule="evenodd" fill="#1074ee"/></svg>
