<svg xmlns="http://www.w3.org/2000/svg" width="115" height="29" viewBox="0 0 115 29">
    <g fill="#FFF" fill-rule="evenodd">
        <path d="M60.398 16.488l-.787 2.94c-.648.384-1.349.717-2.087.994a6.408 6.408 0 0 1-2.254.433c-.807 0-1.398-.124-1.757-.368-.327-.221-.48-.525-.48-.952 0-.549.15-.992.458-1.353.318-.374.8-.678 1.435-.903.638-.238 1.464-.42 2.454-.547a36.549 36.549 0 0 1 3.018-.244m2.333-6.12c-.946-.516-2.302-.768-4.148-.768-.871 0-1.795.075-2.747.217-.94.142-1.667.272-2.16.384l-.203.048-.612 2.714h.544l.108-.018c.561-.196 1.311-.397 2.228-.6 1.503-.33 2.73-.345 3.683-.228.363.045.682.127.948.248.244.107.432.253.559.427.119.165.179.393.179.675 0 .137-.015.27-.045.398-.02.089-.044.186-.07.292a41.045 41.045 0 0 0-4.434.348c-1.383.193-2.584.512-3.57.947-1.03.454-1.822 1.051-2.353 1.777-.539.738-.812 1.65-.812 2.708 0 1.032.398 1.881 1.184 2.523.765.623 1.765.94 2.97.94.72 0 1.368-.06 1.924-.18a9.713 9.713 0 0 0 2.755-1.029l.269-.146-.265 1.009h3.07l2.299-8.722c.053-.21.1-.433.14-.669.04-.244.061-.48.061-.699 0-1.178-.505-2.05-1.502-2.596M68.938 12.447h7.857L66.592 20.81l-.558 1.991h12.418l.639-2.247h-8.243l10.25-8.414.544-1.939H69.576zM94.291 9.9c-.8-.2-1.665-.3-2.568-.3-1.364 0-2.654.219-3.834.649-1.187.432-2.199 1.028-3.008 1.77a8.148 8.148 0 0 0-1.95 2.675 7.915 7.915 0 0 0-.688 3.28c0 .8.156 1.514.464 2.121.31.611.758 1.125 1.33 1.525a5.9 5.9 0 0 0 2.033.9c.755.187 1.632.28 2.608.28.92 0 1.838-.107 2.73-.315.884-.207 1.731-.455 2.517-.737l.166-.06.678-2.768h-.65l-.075.041c-.169.091-.438.229-.81.411-.364.177-.766.349-1.198.51-.379.144-.849.278-1.399.403a7.336 7.336 0 0 1-1.623.184c-1.119 0-1.984-.248-2.57-.738-.58-.484-.862-1.164-.862-2.082 0-1.59.527-2.958 1.564-4.063 1.045-1.114 2.362-1.655 4.024-1.655a6.53 6.53 0 0 1 2.638.52c.347.14.651.293.904.453.264.167.484.313.66.438l.087.06h.511l.68-2.683-.247-.112A12.766 12.766 0 0 0 94.29 9.9M104.78 20.985c-1.11 0-1.97-.25-2.557-.746-.58-.487-.86-1.176-.86-2.106 0-.804.136-1.592.403-2.34.267-.743.652-1.399 1.146-1.949a5.656 5.656 0 0 1 1.833-1.34c.7-.324 1.51-.488 2.4-.488 1.102 0 1.96.244 2.547.726.577.473.857 1.16.857 2.104a7.03 7.03 0 0 1-.397 2.361 5.908 5.908 0 0 1-1.14 1.952 5.32 5.32 0 0 1-1.828 1.343c-.712.32-1.52.483-2.404.483m7.48-10.094c-1.16-.856-2.734-1.291-4.677-1.291-1.426 0-2.76.237-3.965.703-1.208.466-2.243 1.1-3.078 1.884a8.59 8.59 0 0 0-1.997 2.803 8.213 8.213 0 0 0-.692 3.32c0 1.587.59 2.85 1.756 3.756 1.14.886 2.734 1.334 4.736 1.334 1.514 0 2.862-.23 4.005-.687a9.693 9.693 0 0 0 3.038-1.908 8.313 8.313 0 0 0 1.974-2.785 8.29 8.29 0 0 0 .7-3.34c0-1.635-.606-2.91-1.8-3.789M48.746 6l-9.19 12.308-.53.686L33.587 6h-4.173l7.131 16.2h3.82L52.829 6zM20.41 11.138L14.756 0l-5.15 7.332.564 1.856s3.925.318 10.067 3.412l.175-1.462zM22.682 15.476s-4.972-2.155-6.52-2.805c-1.55-.649-5.318-2.099-8.273-1.84 0 0-6.397 10.789-7.889 14.529l1.358.782c.803-.65 3-2.295 7.784-2.385 4.083-.077 6.616 1.189 12.89 3.415 5.164 1.83 6.58 1.62 6.58 1.62l.803-.418-6.733-12.898z"/>
    </g>
</svg>
