<svg xmlns="http://www.w3.org/2000/svg" width="39" height="39" viewBox="0 0 39 39">
    <g fill="none" fill-rule="evenodd">
        <path fill="#34BDB2" d="M0 38.88h38.88V0H0z"/>
        <path fill="#FFF" d="M25.585 13.22c-2.053-1.192-3.875-2.128-6.259-2.087-1.364.024-2.535.765-2.78 2.122-.23 1.262.892 1.962 2.06 2.392 1.935.713 3.62 1.466 5.523 2.258 3.458 1.441 5.231 3.775 5.022 6.77-.267 3.81-2.56 6.542-6.204 7.443-4.762 1.178-9.386-.616-13.293-3.12.986-1.501 2.13-2.527 3.11-4.02 2.257.96 4.03 2.26 6.392 2.462 1.665.142 3.551.063 3.926-1.893.337-1.763-1.198-2.709-2.695-3.237-1.782-.628-3.561-1.397-5.31-2.111-3.23-1.32-4.545-3.901-4.323-6.942 0-1.783 1.479-5.386 5.106-6.507 5.572-1.722 8.643.041 12.684 2.638-1.074 1.42-1.899 2.429-2.959 3.831"/>
    </g>
</svg>
