<svg xmlns="http://www.w3.org/2000/svg" width="58" height="58" viewBox="0 0 58 58">
    <g fill="none" fill-rule="evenodd">
        <path fill="#3FBBFE" d="M46.162 19.585l-4.093-3.41-4.093 3.41-1.897-1.435 2.02-4.715-4.344-2.898.712-2.123h5.028l1.327-4.647h2.494l1.328 4.647h5.028l.713 2.123-4.344 2.898 2.02 4.715zM3.74 44.874h9.348V40.2H3.74z"/>
        <path fill="#412A94" d="M56.093 19.632a2.808 2.808 0 0 1-2.805 2.805H31.786v-8.414a4.683 4.683 0 0 0-3.74-4.58V4.674a2.808 2.808 0 0 1 2.805-2.804h22.437a2.808 2.808 0 0 1 2.805 2.804v14.958zM28.98 26.177c-3.477 0-6.4 2.388-7.233 5.609H4.674A2.808 2.808 0 0 1 1.87 28.98V14.023a2.808 2.808 0 0 1 2.804-2.804h22.437a2.808 2.808 0 0 1 2.805 2.804v12.218a7.523 7.523 0 0 0-.935-.064zm5.61 7.479a5.615 5.615 0 0 1-5.61 5.609 5.615 5.615 0 0 1-5.61-5.61 5.615 5.615 0 0 1 5.61-5.609 5.615 5.615 0 0 1 5.61 5.61zm4.674 17.762v4.675H36.46v-8.414h-1.87v8.414H23.372v-8.414h-1.87v8.414h-2.804v-4.675c0-5.67 4.613-10.283 10.283-10.283 5.67 0 10.284 4.613 10.284 10.283zM53.288 0H30.85a4.68 4.68 0 0 0-4.674 4.674V9.35H4.674A4.68 4.68 0 0 0 0 14.023v14.958a4.68 4.68 0 0 0 4.674 4.675h16.828a7.474 7.474 0 0 0 3.47 6.302c-4.735 1.663-8.144 6.165-8.144 11.46v6.544h24.307v-6.544c0-5.295-3.41-9.797-8.144-11.46a7.474 7.474 0 0 0 3.47-6.302c0-3.132-1.938-5.816-4.675-6.929v-2.42h21.502a4.68 4.68 0 0 0 4.674-4.675V4.674A4.68 4.68 0 0 0 53.288 0z"/>
        <path fill="#412A94" d="M20.923 25.967c-1.089-.29-3.045-.725-5.03-.725-1.985 0-3.942.434-5.03.725l-3.126-8.592 3.944 3.508 4.207-3.74 4.209 3.74 3.952-3.51-3.126 8.594zm-.826-7.585l-4.209-3.74-4.207 3.74-4.24-3.774-1.979 1.98 4.254 11.697.863-.286c.027-.01 2.702-.888 5.314-.888s5.287.878 5.315.888l.863.287 4.253-11.698-1.978-1.98-4.249 3.774zM51.418 37.395h-8.414v-4.674a4.68 4.68 0 0 1 4.675-4.675h3.74a4.68 4.68 0 0 1 4.674 4.675 4.68 4.68 0 0 1-4.675 4.674m0-11.218h-3.74a6.553 6.553 0 0 0-6.543 6.544v6.544h10.283a6.553 6.553 0 0 0 6.544-6.544 6.553 6.553 0 0 0-6.544-6.544M14.958 42.07a4.68 4.68 0 0 1-4.674 4.674h-3.74a4.68 4.68 0 0 1-4.674-4.675 4.68 4.68 0 0 1 4.674-4.674h8.414v4.674zm1.87-6.545H6.544A6.553 6.553 0 0 0 0 42.07a6.553 6.553 0 0 0 6.544 6.545h3.74a6.553 6.553 0 0 0 6.544-6.545v-6.544z"/>
        <path fill="#2867D9" d="M11.219 44.874h1.87v-1.87h-1.87zM7.479 44.874h1.87v-1.87h-1.87zM3.74 44.874h1.87v-1.87H3.74z"/>
    </g>
</svg>
