<svg xmlns="http://www.w3.org/2000/svg" width="640" height="119" fill="none"><path fill="#00D5B0" d="M156.235 93.364h49.469l-37.262-66.717c-3.436.331-7.07 1.239-10.637 6.273-5.727 8.08-42.053 59.436-47.95 67.789-6.639 9.404-14.639 13.597-21.275 15.582-5.868 1.82-10.8 1.82-13.272 1.82h-14.64L0 0h107.836L90.31 24.78H40.82l37.256 66.731c3.436-.33 7.068-1.251 10.635-6.284 5.727-8.081 42.053-59.438 47.95-67.792 6.639-9.404 14.641-13.595 21.277-15.58C163.824.093 168.736 0 171.208 0h14.637l60.665 118.115-107.821.029 17.546-24.78Z"/><path fill="#fff" d="M255.165 19.953h18.712l20.876 43.076 20.873-43.076h18.715l-39.588 76.75-39.588-76.75ZM333.245 57.666c0-22.063 15.93-39.277 36.432-39.277 9.621 0 17.822 3.756 23.185 9.858v-8.292h17.349v75.112h-17.349V86.93c-5.363 6.101-13.564 9.7-23.185 9.7-20.502 0-36.432-17.056-36.432-38.964Zm60.72-.155c0-13.458-8.673-22.847-21.447-22.847-12.621 0-21.45 9.39-21.45 22.847s8.829 22.846 21.45 22.846c12.774 0 21.447-9.389 21.447-22.846ZM420.11 95.065l38.84-59.464H424.6V19.953h64.029l-38.741 59.464h33.811v15.648H420.11ZM488.629 57.51c0-22.064 17.191-39.121 39.745-39.121 11.67 0 22.395 4.694 29.492 12.988l-11.353 11.424c-4.417-5.165-10.725-7.825-18.139-7.825-12.933 0-21.923 9.232-21.923 22.535 0 13.3 8.99 22.534 21.923 22.534 7.414 0 13.722-2.661 18.139-7.825l11.353 11.422c-7.097 8.294-17.822 12.989-29.492 12.989-22.554 0-39.745-17.057-39.745-39.12ZM560.669 57.354c0-21.752 17.349-38.965 39.586-38.965 22.24 0 39.745 17.057 39.745 38.965 0 22.065-17.347 39.277-39.745 39.277-22.081 0-39.586-17.369-39.586-39.277Zm61.509 0c0-13.146-9.146-22.378-21.923-22.378-12.774 0-21.764 9.39-21.764 22.378 0 13.3 8.99 22.691 21.764 22.691 12.935 0 21.923-9.39 21.923-22.691Z"/></svg>