<?xml version="1.0" encoding="UTF-8" standalone="no"?>
<!-- Created with Inkscape (http://www.inkscape.org/) -->

<svg
   xmlns:dc="http://purl.org/dc/elements/1.1/"
   xmlns:cc="http://creativecommons.org/ns#"
   xmlns:rdf="http://www.w3.org/1999/02/22-rdf-syntax-ns#"
   xmlns:svg="http://www.w3.org/2000/svg"
   xmlns="http://www.w3.org/2000/svg"
   xmlns:sodipodi="http://sodipodi.sourceforge.net/DTD/sodipodi-0.dtd"
   xmlns:inkscape="http://www.inkscape.org/namespaces/inkscape"
   width="20.269066mm"
   height="11.002818mm"
   viewBox="0 0 20.269066 11.002818"
   version="1.1"
   id="svg3758"
   sodipodi:docname="1.svg"
   inkscape:version="0.92.4 (f8dce91, 2019-08-02)">
  <defs
     id="defs3752">
    <style
       id="style3762">.cls-1{fill:none;}.cls-2{fill:#fff;}</style>
    <style
       id="style3794">.cls-1{fill:none;}.cls-2{fill:#ffce08;}</style>
  </defs>
  <sodipodi:namedview
     id="base"
     pagecolor="#ffffff"
     bordercolor="#666666"
     borderopacity="1.0"
     inkscape:pageopacity="0.0"
     inkscape:pageshadow="2"
     inkscape:zoom="15.839192"
     inkscape:cx="35.542947"
     inkscape:cy="18.216051"
     inkscape:document-units="mm"
     inkscape:current-layer="layer1"
     showgrid="false"
     fit-margin-top="0"
     fit-margin-left="0"
     fit-margin-right="0"
     fit-margin-bottom="0"
     inkscape:window-width="1920"
     inkscape:window-height="1053"
     inkscape:window-x="1366"
     inkscape:window-y="27"
     inkscape:window-maximized="1" />
  <metadata
     id="metadata3755">
    <rdf:RDF>
      <cc:Work
         rdf:about="">
        <dc:format>image/svg+xml</dc:format>
        <dc:type
           rdf:resource="http://purl.org/dc/dcmitype/StillImage" />
        <dc:title></dc:title>
      </cc:Work>
    </rdf:RDF>
  </metadata>
  <g
     inkscape:label="Layer 1"
     inkscape:groupmode="layer"
     id="layer1"
     transform="translate(-38.427934,-208.74219)">
    <rect
       style="fill:#000000;fill-opacity:1;stroke:#000000;stroke-width:0.16074869;stroke-opacity:1"
       id="rect4663"
       width="20.15843"
       height="10.875478"
       x="38.508308"
       y="208.82256" />
    <g
       id="g3842"
       transform="translate(-33.076457,-13.219025)">
      <g
         transform="matrix(0.26458333,0,0,0.26458333,73.701423,223.75957)"
         id="Layer_2"
         data-name="Layer 2">
        <g
           id="Layer_1-2"
           data-name="Layer 1">
          <rect
             style="fill:none"
             y="0"
             x="0"
             class="cls-1"
             width="60"
             height="28"
             id="rect3768" />
          <rect
             style="fill:#ffffff"
             class="cls-2"
             x="41.790001"
             y="0.0099999998"
             width="1.23"
             height="10.29"
             id="rect3770" />
          <path
             style="fill:#ffffff"
             inkscape:connector-curvature="0"
             class="cls-2"
             d="m 32.66,4.9 a 2.32,2.32 0 0 0 1,-0.69 A 2.41,2.41 0 0 0 34.18,2.64 2.33,2.33 0 0 0 33.28,0.7 3.87,3.87 0 0 0 30.82,0 h -4.05 v 10.3 h 4.1 a 4.51,4.51 0 0 0 2.74,-0.74 2.49,2.49 0 0 0 1,-2.11 A 2.56,2.56 0 0 0 34,5.66 2.65,2.65 0 0 0 32.66,4.9 Z M 32.36,4 V 4 A 2.5,2.5 0 0 1 30.78,4.44 H 28 V 1.15 h 2.84 A 2.43,2.43 0 0 1 32.36,1.57 1.42,1.42 0 0 1 32.9,2.77 1.47,1.47 0 0 1 32.36,4 Z M 28,5.56 h 2.78 A 3.34,3.34 0 0 1 32.71,6 1.5,1.5 0 0 1 33.38,7.31 1.53,1.53 0 0 1 32.72,8.64 3.3,3.3 0 0 1 30.79,9.13 H 28 Z"
             id="path3772" />
          <polygon
             style="fill:#ffffff"
             class="cls-2"
             points="52.86,0.01 51.63,0.01 51.63,10.29 52.86,10.29 52.86,2.27 58.29,10.25 58.33,10.29 59.56,10.29 59.56,0.01 58.34,0.01 58.34,8.03 "
             id="polygon3774" />
          <polygon
             style="fill:#ffffff"
             class="cls-2"
             points="9.78,19.83 8.61,19.83 8.61,1.2 0.44,1.2 0.44,0 9.78,0 "
             id="polygon3776" />
        </g>
      </g>
      <g
         transform="matrix(0.26458333,0,0,0.26458333,73.701423,223.75734)"
         id="Layer_2-3"
         data-name="Layer 2">
        <g
           id="Layer_1-2-6"
           data-name="Layer 1">
          <rect
             style="fill:none"
             y="0"
             x="0"
             class="cls-1"
             width="60"
             height="28"
             id="rect3800" />
          <path
             style="fill:#ffce08"
             inkscape:connector-curvature="0"
             class="cls-2"
             d="M 30.59,17.71 H 26.77 V 28 H 28 v -3.25 h 2.6 a 4.35,4.35 0 0 0 3,-0.94 3.37,3.37 0 0 0 1.06,-2.65 A 3.19,3.19 0 0 0 33.6,18.6 4.46,4.46 0 0 0 30.59,17.71 Z M 28,18.84 h 2.55 a 3.35,3.35 0 0 1 2.15,0.61 2.11,2.11 0 0 1 0.73,1.75 2.22,2.22 0 0 1 -0.74,1.8 3.27,3.27 0 0 1 -2.14,0.63 H 28 Z"
             id="path3802" />
          <path
             style="fill:#ffce08"
             inkscape:connector-curvature="0"
             class="cls-2"
             d="M 43,17.71 H 41.81 L 37.17,28 h 1.33 l 1.18,-2.67 h 5.42 l 1.16,2.6 V 28 H 47.6 L 43,17.78 Z m 1.61,6.48 h -4.44 l 2.2,-5 z"
             id="path3804" />
          <path
             style="fill:#ffce08"
             inkscape:connector-curvature="0"
             class="cls-2"
             d="m 57.3,24.47 a 3.23,3.23 0 0 0 1.63,-1.16 3.6,3.6 0 0 0 0.63,-2.15 3.18,3.18 0 0 0 -1.07,-2.56 4.51,4.51 0 0 0 -3,-0.9 H 51.63 V 28 h 1.23 v -3.26 h 2.64 0.64 l 2,3.27 h 1.44 z m -4.44,-5.64 h 2.64 a 3.32,3.32 0 0 1 2.14,0.61 2.1,2.1 0 0 1 0.73,1.75 2.23,2.23 0 0 1 -0.73,1.8 3.24,3.24 0 0 1 -2.14,0.63 h -2.64 z"
             id="path3806" />
          <polygon
             style="fill:#ffce08"
             class="cls-2"
             points="1.64,26.8 16.74,26.8 16.74,0 17.94,0 17.94,28 0.44,28 0.44,9.33 1.64,9.33 "
             id="polygon3808" />
        </g>
      </g>
    </g>
  </g>
</svg>
