<?xml version="1.0" encoding="UTF-8" standalone="no"?>
<!-- Generator: Adobe Illustrator 21.0.2, SVG Export Plug-In . SVG Version: 6.00 Build 0)  -->

<svg
   xmlns:dc="http://purl.org/dc/elements/1.1/"
   xmlns:cc="http://creativecommons.org/ns#"
   xmlns:rdf="http://www.w3.org/1999/02/22-rdf-syntax-ns#"
   xmlns:svg="http://www.w3.org/2000/svg"
   xmlns="http://www.w3.org/2000/svg"
   xmlns:sodipodi="http://sodipodi.sourceforge.net/DTD/sodipodi-0.dtd"
   xmlns:inkscape="http://www.inkscape.org/namespaces/inkscape"
   version="1.1"
   id="Layer_1"
   x="0px"
   y="0px"
   viewBox="0 0 164 47.1"
   style="enable-background:new 0 0 164 47.1;"
   xml:space="preserve"
   sodipodi:docname="2.svg"
   inkscape:export-filename="/home/adrian/uniforms/website/static/assets/companies/2.png"
   inkscape:export-xdpi="234.85789"
   inkscape:export-ydpi="234.85789"
   inkscape:version="0.92.4 (f8dce91, 2019-08-02)"><metadata
   id="metadata31"><rdf:RDF><cc:Work
       rdf:about=""><dc:format>image/svg+xml</dc:format><dc:type
         rdf:resource="http://purl.org/dc/dcmitype/StillImage" /></cc:Work></rdf:RDF></metadata><defs
   id="defs29" /><sodipodi:namedview
   pagecolor="#ffffff"
   bordercolor="#666666"
   borderopacity="1"
   objecttolerance="10"
   gridtolerance="10"
   guidetolerance="10"
   inkscape:pageopacity="0"
   inkscape:pageshadow="2"
   inkscape:window-width="1043"
   inkscape:window-height="480"
   id="namedview27"
   showgrid="false"
   inkscape:zoom="2.4512195"
   inkscape:cx="82"
   inkscape:cy="23.549999"
   inkscape:window-x="0"
   inkscape:window-y="0"
   inkscape:window-maximized="0"
   inkscape:current-layer="Layer_1" />
<style
   type="text/css"
   id="style2">
	.st0{fill:#4196D4;}
	.st1{fill:#1D3E55;}
</style>
<g
   id="g10">
	<path
   class="st0"
   d="M28.3,36.2c0.1,0.2,0.2,0.4,0.2,0.6c0,0.2,0,4.1-3.5,5.8c-1,0.5-2.2,0.6-3.3,0.6L19,46.6c1.6,0,3.8,0,4.6-0.1   c1.4-0.2,2.9-0.7,4.2-1.5c0.9-0.5,1.7-1.2,2.5-2c0.9-1,1.6-2,1.9-2.8c0.2-0.4,0.3-0.9,0.4-1.4c0.3-1.4,0.5-3.6,0.5-5.4h-7.2   L28.3,36.2z"
   id="path4" />
	<path
   class="st0"
   d="M27.9,28.6l-1.6,2.8l10.8,0c3.5,0,5.3-1.2,6.7-2.8L27.9,28.6z"
   id="path6" />
	<path
   class="st0"
   d="M16.7,25.3c0.5,0,0.9,0.3,1,0.8c0,0.2,0.5,5.3,5.3,5.3h0.6l3-5h6.6V11.2c0-4.8-2.3-7.2-2.4-7.3l-0.1-0.1   c-1.2-1.4-2.7-2.5-4.5-3.1c-1.5-0.5-2.8-0.5-4.4-0.5l-7.6,0c0.9,1,1.4,2.3,1.4,4c0,0.5-0.4,0.9-0.9,0.9s-0.9-0.4-0.9-0.9   c0-1.2-0.4-2.2-1.1-2.9c-1.3-1.2-3.5-1.1-3.5-1.1c0,0,0,0,0,0l-7.4,0c-0.1,0-0.6,0-1,0.3C0.5,0.9,0.3,1.3,0.3,1.9v19.3   c0,0.1-0.2,4.2,2.6,7c0,0,3.2,3.3,7.1,3.3h8.2c-1.6-1.5-2.3-3.7-2.4-5.2C15.8,25.8,16.2,25.4,16.7,25.3z M26.9,18.9l-5.8-2.7   C23.1,12.4,28.1,14.8,26.9,18.9z"
   id="path8" />
</g>
<path
   class="st1"
   d="M51.7,31.2c-0.1-0.1-0.2-0.3-0.2-0.5V9c0-0.2,0.1-0.4,0.2-0.6c0.1-0.1,0.3-0.2,0.5-0.2h7.5  c3.3,0,5.7,0.7,7.2,2.2c1.5,1.5,2.2,3.7,2.3,6.7c0,0.6,0,1.5,0,2.6c0,1.1,0,2,0,2.6c0,2.1-0.4,3.8-1,5.1c-0.6,1.3-1.6,2.3-3,2.9  c-1.3,0.6-3.1,1-5.4,1h-7.6C52,31.4,51.8,31.3,51.7,31.2z M59.7,28.7c1.5,0,2.8-0.2,3.7-0.6c0.9-0.4,1.6-1.1,2-2  c0.4-0.9,0.6-2.2,0.7-3.7c0-1.3,0.1-2.2,0.1-2.5c0-0.4,0-1.2-0.1-2.5c0-2.2-0.6-3.8-1.6-4.9c-1-1-2.6-1.5-4.9-1.5h-4.9v17.7H59.7z"
   id="path12" />
<path
   class="st1"
   d="M73.8,29.4c-1.3-1.4-2-3.2-2.1-5.5l0-1.1l0-1.1c0.1-2.3,0.8-4.1,2.1-5.5c1.3-1.4,3-2,5.2-2  c2.3,0,4.2,0.7,5.4,2.2c1.3,1.5,1.9,3.5,1.9,6.1v0.6c0,0.2-0.1,0.4-0.2,0.5c-0.1,0.1-0.3,0.2-0.5,0.2H74.5v0.3  c0.1,1.4,0.5,2.6,1.3,3.5c0.8,1,1.8,1.5,3.1,1.5c1,0,1.8-0.2,2.4-0.6c0.6-0.4,1.1-0.8,1.4-1.2c0.2-0.3,0.3-0.4,0.4-0.5  c0.1-0.1,0.3-0.1,0.5-0.1h1.4c0.2,0,0.4,0.1,0.5,0.2c0.1,0.1,0.2,0.2,0.2,0.4c0,0.5-0.3,1-0.9,1.7c-0.6,0.7-1.4,1.2-2.4,1.7  c-1.1,0.5-2.3,0.7-3.6,0.7C76.8,31.4,75.1,30.8,73.8,29.4z M83.4,21.6L83.4,21.6c0-1.6-0.4-2.8-1.2-3.7c-0.8-0.9-1.9-1.4-3.3-1.4  c-1.4,0-2.5,0.5-3.3,1.4c-0.8,0.9-1.2,2.1-1.2,3.6v0.1H83.4z"
   id="path14" />
<path
   class="st1"
   d="M91.7,30.7c-1-0.5-1.7-1.1-2.2-1.7c-0.5-0.6-0.7-1.1-0.7-1.5c0-0.2,0.1-0.4,0.2-0.5c0.1-0.1,0.3-0.2,0.5-0.2  h1.3c0.1,0,0.2,0,0.3,0.1c0.1,0,0.2,0.1,0.3,0.3c0.5,0.6,1,1.1,1.6,1.4c0.6,0.4,1.2,0.6,2.3,0.6c1.1,0,1.8-0.2,2.5-0.6  c0.7-0.4,1-1,1-1.9c0-0.5-0.1-1-0.4-1.3c-0.3-0.3-0.8-0.6-1.5-0.9c-0.7-0.3-1.7-0.5-3.1-0.8c-1.9-0.4-3.2-1-3.9-1.8  c-0.8-0.8-1.1-1.8-1.1-3c0-0.8,0.2-1.5,0.7-2.3c0.5-0.7,1.2-1.3,2.1-1.8c0.9-0.5,2-0.7,3.3-0.7c1.3,0,2.5,0.2,3.4,0.7  c0.9,0.4,1.7,1,2.1,1.6c0.5,0.6,0.7,1.1,0.7,1.5c0,0.2-0.1,0.4-0.2,0.5c-0.1,0.1-0.3,0.2-0.5,0.2h-1.2c-0.3,0-0.4-0.1-0.6-0.4  c-0.4-0.4-0.6-0.7-0.9-0.9c-0.3-0.2-0.6-0.4-1.1-0.6c-0.5-0.2-1.1-0.2-1.8-0.2c-1,0-1.8,0.2-2.4,0.7c-0.6,0.4-0.8,1-0.8,1.7  c0,0.4,0.1,0.8,0.4,1.1c0.2,0.3,0.7,0.6,1.3,0.9c0.7,0.3,1.6,0.5,2.9,0.8c2,0.4,3.5,1,4.3,1.8c0.8,0.8,1.3,1.8,1.3,3  c0,0.9-0.3,1.7-0.8,2.5c-0.5,0.7-1.3,1.3-2.3,1.8c-1,0.4-2.3,0.7-3.7,0.6C93.4,31.4,92.7,31.2,91.7,30.7z"
   id="path16" />
<path
   class="st1"
   d="M104.4,31.2c-0.1-0.1-0.2-0.3-0.2-0.6V9c0-0.2,0.1-0.4,0.2-0.6c0.1-0.1,0.3-0.2,0.6-0.2h1.4  c0.2,0,0.4,0.1,0.6,0.2c0.1,0.1,0.2,0.3,0.2,0.6v11.1l6-4.9c0.3-0.2,0.6-0.4,0.7-0.5c0.1-0.1,0.3-0.1,0.6-0.1h1.7  c0.2,0,0.4,0.1,0.5,0.2c0.1,0.1,0.2,0.3,0.2,0.5c0,0.2-0.1,0.4-0.4,0.6l-7.1,5.8l8.7,8.3c0.2,0.2,0.4,0.5,0.4,0.6  c0,0.2-0.1,0.4-0.2,0.5s-0.3,0.2-0.5,0.2h-1.6c-0.3,0-0.6,0-0.7-0.1c-0.1-0.1-0.4-0.2-0.6-0.5l-7.6-7.2v7c0,0.2-0.1,0.4-0.2,0.6  c-0.1,0.1-0.3,0.2-0.6,0.2H105C104.8,31.5,104.6,31.4,104.4,31.2z"
   id="path18" />
<path
   class="st1"
   d="M150.7,29.5c-1.3-1.3-1.9-3.1-2-5.3l0-1.4l0-1.4c0.1-2.2,0.8-3.9,2.1-5.3c1.3-1.3,3.1-2,5.4-2s4.1,0.7,5.4,2  c1.3,1.3,2,3.1,2.1,5.3c0,0.5,0.1,0.9,0.1,1.4c0,0.4,0,0.9-0.1,1.4c-0.1,2.2-0.8,3.9-2,5.3c-1.3,1.3-3.1,2-5.4,2  C153.7,31.5,151.9,30.8,150.7,29.5z M159.3,27.8c0.8-0.9,1.2-2.1,1.3-3.7c0-0.2,0-0.6,0-1.2c0-0.6,0-1,0-1.2  c-0.1-1.6-0.5-2.9-1.3-3.7c-0.8-0.9-1.9-1.3-3.2-1.3s-2.4,0.4-3.2,1.3c-0.8,0.9-1.2,2.1-1.3,3.7l0,1.2l0,1.2  c0.1,1.6,0.5,2.9,1.3,3.7c0.8,0.9,1.9,1.3,3.2,1.3S158.5,28.6,159.3,27.8z"
   id="path20" />
<path
   class="st1"
   d="M147.1,14.3c-0.5,0-1.1,0-1.7,0c-2.2,0-3.5,0.7-4.6,1.7l0,0l0-1c0,0,0-0.3-0.3-0.3l-2.2,0c0,0-0.3,0-0.3,0.3  l0,16.1c0,0,0,0.3,0.3,0.3h0.8l1.4,0c0,0,0.3,0,0.3-0.3l0-9.6c0.1-1.6,0.5-2.9,1.4-3.7c0.9-0.8,1.7-0.9,3.2-0.9c0.6,0,1.1,0,1.7,0  c0.2,0,0.2-0.2,0.2-0.2l0-2.2C147.3,14.5,147.4,14.3,147.1,14.3z M140.8,21.6L140.8,21.6L140.8,21.6L140.8,21.6z"
   id="path22" />
<path
   class="st1"
   d="M135.5,21.5c-0.1-2.2-0.8-3.9-2.1-5.3c-1.3-1.3-3.1-2-5.4-2c-2.2,0-3.5,0.9-4.6,1.9l0-1.2c0,0,0-0.3-0.3-0.3  l-2.2,0c0,0-0.3,0-0.3,0.3l0,22c0,0,0,0.3,0.3,0.3h0.8l1.4,0c0,0,0.3,0,0.3-0.3l0-7.3c1,1,2.2,1.9,4.6,1.9c2.3,0,4.1-0.7,5.4-2  c1.3-1.3,1.9-3.1,2-5.3c0-0.5,0.1-0.9,0.1-1.4C135.5,22.5,135.5,22,135.5,21.5z M132.6,24.1c-0.1,1.6-0.5,2.9-1.3,3.7  c-0.8,0.9-1.9,1.3-3.2,1.3s-2.4-0.4-3.2-1.3c-0.8-0.9-1.2-2.1-1.3-3.7l0-1.2l0-1.2c0.1-1.6,0.5-2.9,1.3-3.7c0.8-0.9,1.9-1.3,3.2-1.3  s2.4,0.4,3.2,1.3c0.8,0.9,1.2,2.1,1.3,3.7c0,0.2,0,0.6,0,1.2C132.6,23.5,132.6,23.9,132.6,24.1z"
   id="path24" />
</svg>