<svg xmlns="http://www.w3.org/2000/svg" viewBox="0 0 186.18 40.5"><defs><style>.cls-1{fill:#143156}</style></defs><g id="Layer_2" data-name="Layer 2"><g id="Layer_1-2" data-name="Layer 1"><path class="cls-1" d="M185.83 14.27c-5.11-.66-8 2-10.09 6s-.07.14-.17.1a.16.16 0 0 1-.1-.18c.29-1.8.57-3.61.88-5.53a.22.22 0 0 0 0-.08.54.54 0 0 0-.53-.54.65.65 0 0 0-.21 0l-8.68 3.81a.55.55 0 0 0-.41.52.53.53 0 0 0 .16.38c.56.58 1.07 1.11 1.53 1.68a2.46 2.46 0 0 1 .61 1.38q.08 7 0 14a2.33 2.33 0 0 1-.62 1.36c-.55.64-1.17 1.23-1.8 1.84a.3.3 0 0 0-.11.22.29.29 0 0 0 .29.29h12.19a.29.29 0 0 0 .29-.29.27.27 0 0 0-.11-.22c-.63-.61-1.24-1.2-1.8-1.84a2.66 2.66 0 0 1-.61-1.19v-.57a.19.19 0 0 0 0-.08V24.74a3.72 3.72 0 0 1 1.28-2.8s1.15-1 5.41-.06a.55.55 0 0 0 .7-.35c.72-2.15 1.46-4.35 2.23-6.62a.55.55 0 0 0-.34-.63M138.71 36.42c-.6-.59-1.19-1.16-1.73-1.77l-.06-.07a2.48 2.48 0 0 1-.6-1.17.55.55 0 0 1 0-.18V31.56.53a.54.54 0 0 0-.54-.53.45.45 0 0 0-.2 0l-9 4h-.07a.54.54 0 0 0-.29.47.51.51 0 0 0 .06.25.28.28 0 0 0 0 .07l.05.06h.05c.55.54 1 1 1.53 1.53.24.25.59.56.6.85.05 2.25 0 4.51 0 6.79-1.33-.09-2.54-.2-3.76-.24-10-.31-16.88 8-14.59 17.65a10.37 10.37 0 0 0 7.82 8.23 11.78 11.78 0 0 0 2.88.39h.69a13.25 13.25 0 0 0 1.82-.29 9.81 9.81 0 0 0 5.63-3.31.25.25 0 0 1 .2-.09h.1a.33.33 0 0 1 .17.16l1.67 3.48a.28.28 0 0 0 .25.15h.11l7.13-3.25a.28.28 0 0 0 .06-.48m-10.12-3.79a2.81 2.81 0 0 0 0 .3 2.58 2.58 0 0 1-1.49 2.19l-.33.16-.12.05-.15.07c-.15.06-.29.12-.43.16a3 3 0 0 1-.4.12l-.35.1h-.16l-.53.07h-.85a2.45 2.45 0 0 1-.38 0h-.2a4.54 4.54 0 0 1-.53-.12l-.2-.07-.36-.13-.2-.08-.39-.2-.13-.07-.47-.32-.15-.12-.32-.29-.15-.13-.36-.41v-.06c-.13-.16-.25-.34-.37-.52a1.4 1.4 0 0 0-.1-.16l-.24-.44-.09-.18a6.5 6.5 0 0 1-.27-.66 16 16 0 0 1 .38-12.19c1.29-2.89 3.82-4.13 6.44-3.37a3.85 3.85 0 0 1 3 3.85v12.46M107.9 39.06c-.63-.61-1.24-1.2-1.8-1.84a2.66 2.66 0 0 1-.6-1.22v-.57a.19.19 0 0 0 0-.08V.53A.54.54 0 0 0 105 0a.41.41 0 0 0-.19 0l-9 4h-.06a.53.53 0 0 0-.3.47.52.52 0 0 0 .07.25v.13l1.53 1.53c.24.25.59.56.59.85V35.7a2.33 2.33 0 0 1-.62 1.36c-.56.64-1.17 1.23-1.8 1.84a.27.27 0 0 0-.11.22.29.29 0 0 0 .29.29h12.19a.29.29 0 0 0 .29-.29.27.27 0 0 0-.11-.22zM93.26 36.42c-.6-.59-1.19-1.16-1.73-1.77l-.06-.07a2.48 2.48 0 0 1-.6-1.17.55.55 0 0 1 0-.18V31.56 14.58a.54.54 0 0 0-.54-.53.65.65 0 0 0-.2 0l-9 4h-.07a.54.54 0 0 0-.29.48.5.5 0 0 0 .06.24.28.28 0 0 0 0 .07v.05L81 19c.55.54 1.05 1 1.53 1.53.24.25.59.56.6.85v10.07a4.45 4.45 0 0 1-3 4.22l-.46.11a6.94 6.94 0 0 1-.77.08 5.31 5.31 0 0 1-1.2-.07 4.47 4.47 0 0 1-3.45-4.34V14.58a.53.53 0 0 0-.53-.53.59.59 0 0 0-.2 0l-9 4h-.06a.53.53 0 0 0-.29.48.5.5 0 0 0 .06.24V18.89l.05.05 1.53 1.53c.24.25.59.56.59.85v9a2.26 2.26 0 0 1 0 .26v.71a14.67 14.67 0 0 0 .37 2.7 3.91 3.91 0 0 0 .21.58 1.34 1.34 0 0 1 .07.18 9.26 9.26 0 0 0 15.4 2.63 9.05 9.05 0 0 0 .93-1 .25.25 0 0 1 .2-.09h.1a.3.3 0 0 1 .17.16L85.69 40a.28.28 0 0 0 .25.15h.11l7.14-3.25a.28.28 0 0 0 .06-.48M164.52 23.5c0-.31-.05-.59-.06-.72s-.05-.4-.08-.6-.09-.48-.15-.72l-.15-.49a8.61 8.61 0 0 0-4.43-5.58 14.1 14.1 0 0 0-2.73-1 16.33 16.33 0 0 0-2.36-.39h-1a13.22 13.22 0 0 0-11.17 6 13.59 13.59 0 0 0-1.86 5.62.88.88 0 0 0 0 .16c-.67 6.39 2.81 12.15 8.63 14 5.35 1.68 11.5.65 14.37-5.35A11.78 11.78 0 0 0 164 33s0-.09.05-.13 0-.07 0-.1a.54.54 0 0 0-.54-.54.52.52 0 0 0-.37.15 12.71 12.71 0 0 1-5.29 2c-5.67.78-9.12-2.28-9.88-7 0-.42-.06-.85-.07-1.28s0-.8 0-1.21h16c.3 0 .64-.11.66-.54a4 4 0 0 0 0-.49v-.4M148 22.24a.13.13 0 0 1 0-.06v-.05-.06V22v-.06a.36.36 0 0 1 0-.1v-.37a8.49 8.49 0 0 1 .24-1c0-.08.05-.16.07-.25 0-.07.05-.15.08-.23v-.05a1.43 1.43 0 0 1 .08-.22v-.07l.09-.21v-.07l.1-.22v-.06l.12-.22a.09.09 0 0 1 0-.06 1.71 1.71 0 0 1 .13-.23 6.23 6.23 0 0 1 .57-.78l.18-.2.07-.06a1.29 1.29 0 0 1 .17-.16l.08-.07.16-.13.1-.07.17-.11.11-.07.17-.09.12-.06.18-.08.13-.05.19-.07h2.78l.2.07.13.05.18.08.12.06.17.09.11.07.17.11.09.07.17.13a.27.27 0 0 0 .08.07l.17.16.06.06.19.2a5.3 5.3 0 0 1 .56.78l.13.23v.06l.12.22v.06a1.47 1.47 0 0 0 .1.22v.07l.09.21v.07l.09.21V20c0 .07.05.15.08.22 0 .09.05.17.08.25.1.36.18.69.24 1a1.49 1.49 0 0 1 0 .18V22a.17.17 0 0 0 0 .07v.06a.09.09 0 0 1 0 .05v.06H148M57 16.27a15.91 15.91 0 0 0-15.19-.72l-.32.16-.29.14a12 12 0 0 0-4.51 4.39 13.08 13.08 0 0 0 9.92 19.81c.64.06 1.26.1 1.88.11H49c.62 0 1.25 0 1.88-.11a13.07 13.07 0 0 0 9.92-19.81 11.93 11.93 0 0 0-3.82-4m-3.91 17.81c-.65 2-1.68 3.71-4.07 3.9h-.48c-2.39-.19-3.43-1.89-4.07-3.9a25.4 25.4 0 0 1-1-9.69A13.22 13.22 0 0 1 45 18.59a4.52 4.52 0 0 1 3.23-2.45 3.51 3.51 0 0 1 .55-.05 3.29 3.29 0 0 1 .54.05 4.48 4.48 0 0 1 3.23 2.45 13 13 0 0 1 1.55 5.77 25.59 25.59 0 0 1-1 9.69M25.39 21.56a8.87 8.87 0 0 0-1.64-.22A8.34 8.34 0 0 0 23.17 5c-.44-.09-.94-.16-1.49-.23-1.59-.21-3.48-.34-4.91-.42h-.21c-1.24-.07-4.18-.08-6.49-.08H.29a.29.29 0 0 0-.29.27.27.27 0 0 0 .11.22C.73 5.37 1.35 6 1.9 6.6A2.3 2.3 0 0 1 2.52 8v27.9a2.33 2.33 0 0 1-.62 1.36C1.35 37.85.75 38.43.13 39a.3.3 0 0 0-.1.22.29.29 0 0 0 0 .09.24.24 0 0 0 .06.11.54.54 0 0 0 .41.13h21s7.15.41 9.77-5.52a8.77 8.77 0 0 0-5.85-12.54M23.59 29v1.55a5.88 5.88 0 0 1-3.83 5.6c-.25.1-.51.2-.77.28a4.64 4.64 0 0 1-1.3.27H10.72V22.86H17.68a6 6 0 0 1 2.08.54 5.88 5.88 0 0 1 3.83 5.6M10.7 8.31V6.89c1.31.07 2.6 0 3.88 0h1.26c.22 0 .44 0 .65.06a8.7 8.7 0 0 1 2.31.58 3.49 3.49 0 0 1 .39.19C21.48 9 22.6 11.94 22 15.13A5.66 5.66 0 0 1 17.18 20a1.25 1.25 0 0 1-.18 0 15.53 15.53 0 0 1-1.93.15H10.7v-.46z"/></g></g></svg>